<?xml version="1.0" encoding="utf-8"?>
<!-- Generator: Adobe Illustrator 23.0.1, SVG Export Plug-In . SVG Version: 6.00 Build 0)  -->
<svg version="1.1" id="Calque_1" xmlns="http://www.w3.org/2000/svg" xmlns:xlink="http://www.w3.org/1999/xlink" x="0px" y="0px"
	 viewBox="0 0 512 512" style="enable-background:new 0 0 512 512;" xml:space="preserve">
<style type="text/css">
	.st0{stroke:#000000;stroke-miterlimit:10;}
</style>
<g>
	<polygon class="st0" points="195.27,284.77 187.83,297.65 158.11,297.65 165.53,284.77 172.97,271.9 187.83,271.9 	"/>
	<polygon class="st0" points="418.27,207.55 410.83,220.4 395.97,220.4 388.53,207.55 381.09,194.64 373.67,181.8 366.23,168.89 
		358.81,156.04 358.81,156.02 351.37,143.14 321.63,143.14 314.21,130.29 306.77,143.14 291.89,143.14 284.47,130.29 277.03,143.14 
		187.83,143.14 180.39,156.02 172.97,168.89 165.53,181.77 158.09,194.64 150.67,207.52 135.79,233.27 128.37,246.15 120.93,259.05 
		113.49,271.9 106.04,284.77 98.63,297.65 83.74,323.4 113.51,323.4 98.63,349.15 39.14,349.15 54.03,323.4 68.89,297.65 
		83.74,271.9 91.19,259.05 98.63,246.15 106.04,233.3 113.49,220.4 120.93,207.52 128.37,194.64 135.79,181.77 150.67,156.02 
		158.09,143.14 165.53,130.27 172.97,117.39 187.83,117.39 195.27,130.27 202.69,117.39 217.57,117.39 224.99,130.29 232.43,117.39 
		247.29,117.39 254.73,130.29 262.17,117.39 366.23,117.39 373.67,130.29 381.09,143.14 388.53,156.04 395.97,168.89 403.41,181.77 
		403.41,181.8 395.97,194.64 410.83,194.64 	"/>
	<polygon class="st0" points="202.69,117.39 195.27,130.27 187.83,117.39 	"/>
	<polygon class="st0" points="232.43,117.39 224.99,130.29 217.57,117.39 	"/>
	<polygon class="st0" points="262.17,117.39 254.73,130.29 247.29,117.39 	"/>
	<polygon class="st0" points="291.89,143.14 277.03,143.14 284.47,130.29 	"/>
	<polygon class="st0" points="321.63,143.14 306.77,143.14 314.21,130.29 	"/>
	<polygon class="st0" points="410.83,194.64 395.97,194.64 403.41,181.8 	"/>
	<polygon class="st0" points="425.69,220.4 410.83,220.4 418.27,207.55 	"/>
	<polygon class="st0" points="410.83,246.15 395.97,246.15 403.41,233.3 	"/>
	<polygon class="st0" points="410.83,271.9 403.41,284.77 395.97,271.9 	"/>
	<polygon class="st0" points="395.97,297.65 388.53,310.52 381.09,297.65 	"/>
	<polygon class="st0" points="381.11,323.4 373.67,336.27 366.23,323.4 	"/>
	<polygon class="st0" points="351.37,349.15 336.51,349.15 343.93,336.27 	"/>
	<polygon class="st0" points="321.63,349.15 306.77,349.15 314.21,336.27 	"/>
	<polygon class="st0" points="291.89,349.15 277.03,349.15 284.47,336.27 	"/>
	<polygon class="st0" points="262.17,349.15 247.31,349.15 254.73,336.27 	"/>
	<polygon class="st0" points="217.57,194.64 210.13,207.55 202.69,194.64 	"/>
	<polygon class="st0" points="232.43,194.64 217.57,194.64 224.99,181.8 	"/>
	<polygon class="st0" points="262.17,194.64 247.31,194.64 254.73,181.8 	"/>
	<polygon class="st0" points="321.63,194.64 306.77,194.64 314.21,181.8 	"/>
	<polygon class="st0" points="232.43,297.65 217.57,297.65 224.99,284.77 	"/>
	<polygon class="st0" points="262.17,297.65 247.31,297.65 254.73,284.77 	"/>
	<polygon class="st0" points="291.89,297.65 277.03,297.65 284.47,284.77 	"/>
	<polygon class="st0" points="321.63,297.65 306.77,297.65 314.21,284.77 	"/>
	<polygon class="st0" points="351.37,271.9 343.93,284.77 336.49,271.9 	"/>
	<polygon class="st0" points="232.43,349.15 217.57,349.15 224.99,336.27 	"/>
	<polygon class="st0" points="202.69,297.65 187.83,297.65 195.27,284.77 	"/>
	<polygon class="st0" points="284.47,284.77 277.03,297.65 262.17,297.65 254.73,284.77 247.31,297.65 232.43,297.65 224.99,284.77 
		217.57,297.65 202.69,297.65 195.27,284.77 187.83,271.9 277.03,271.9 	"/>
	<polygon class="st0" points="291.91,271.9 284.47,284.77 277.03,271.9 	"/>
	<polygon class="st0" points="187.83,220.4 172.97,220.4 180.39,207.55 	"/>
	<path class="st0" d="M425.69,220.4h-14.86l-7.42,12.88v0.03l7.42,12.85h-14.86l-7.44,12.9l-7.42,12.85l-14.88,25.75l-7.42,12.88
		l-7.44,12.88h-133.8l-14.88-25.75h-44.57l-7.44,12.9l-7.44,12.85l-7.44,12.9l-7.42,12.85h89.2l7.42-12.88l7.44,12.88h14.88
		l7.42-12.88l7.44,12.88h14.86l7.44-12.88l7.42,12.88h14.88l7.44-12.88l7.42,12.88h14.88l7.42-12.88l7.44,12.88h14.86l7.44-12.88
		l-7.44-12.88h14.88l7.42-12.88l-7.44-12.88h14.88l7.44-12.88l-7.44-12.88h14.86l7.44-12.85l7.44-12.9l7.42-12.85L425.69,220.4z
		 M172.97,323.4l7.42-12.88l7.44,12.88H172.97z"/>
	<polygon class="st0" points="187.83,323.4 172.97,323.4 180.39,310.52 	"/>
	<polygon class="st0" points="358.81,259.02 358.81,259.05 351.37,271.9 336.49,271.9 343.93,284.77 336.51,297.65 321.63,297.65 
		314.21,284.77 306.77,297.65 291.89,297.65 284.47,284.77 291.91,271.9 321.63,271.9 329.07,259.05 336.51,246.15 351.37,246.15 	
		"/>
	<polygon class="st0" points="291.91,168.89 284.47,181.8 277.03,168.89 	"/>
	<polygon class="st0" points="321.63,220.4 314.21,233.27 306.77,220.4 	"/>
	<polygon class="st0" points="291.91,220.4 284.47,233.3 277.03,220.4 	"/>
	<polygon class="st0" points="314.21,181.8 306.77,194.64 262.17,194.64 254.73,181.8 247.31,194.64 232.43,194.64 224.99,181.8 
		217.57,194.64 187.83,194.64 195.27,181.8 202.71,168.89 277.03,168.89 284.47,181.8 291.91,168.89 306.77,168.89 	"/>
	<polygon class="st0" points="202.71,220.4 195.27,233.3 202.69,246.15 172.97,246.15 165.53,233.3 172.97,220.4 187.83,220.4 
		180.39,207.55 180.39,207.52 187.83,194.64 202.69,194.64 210.13,207.55 	"/>
	<polygon class="st0" points="351.37,246.15 232.43,246.15 224.99,233.3 217.57,246.15 202.69,246.15 195.27,233.3 202.71,220.4 
		247.29,220.4 254.73,233.3 262.17,220.4 277.03,220.4 284.47,233.3 291.91,220.4 306.77,220.4 314.21,233.27 321.63,220.4 
		336.49,220.4 343.93,233.3 	"/>
	<polygon class="st0" points="262.17,220.4 254.73,233.3 247.29,220.4 	"/>
	<polygon class="st0" points="232.43,246.15 217.57,246.15 224.99,233.3 	"/>
	<polygon class="st0" points="343.93,181.8 336.51,194.64 321.63,194.64 314.21,181.8 306.77,168.89 336.49,168.89 	"/>
	<polygon class="st0" points="351.37,194.64 336.51,194.64 343.93,181.8 	"/>
	<polygon class="st0" points="410.83,220.4 403.41,233.27 395.97,220.4 	"/>
</g>
</svg>
